<svg width="160" height="60" viewBox="0 0 160 60" fill="none" xmlns="http://www.w3.org/2000/svg">
<g id="logo" opacity="0.3">
<g id="Group">
<path id="Vector" d="M16.8477 38.2596C21.451 38.0196 25.1167 33.8597 27.066 30.913C24.06 24.9223 25.3066 18.5468 29.4823 14.4004C27.6719 18.1504 29.1742 26.4952 31.4292 27.3159C37.8671 27.6713 42.7581 32.1309 43.98 37.8094C40.2615 33.8289 38.4976 32.1631 32.0951 32.8472C24.5578 39.6171 22.6051 39.0581 16.8477 38.2596Z" fill="white"/>
<path id="Vector_2" d="M18.5672 6.28215C9.28253 8.8893 7.62136 12.4864 3.42969 16.2533C11.3956 0.887957 27.2053 -1.29974 35.6138 2.98907C22.3157 5.02476 11.7026 15.4024 16.1568 32.9356C7.48624 19.9172 17.2387 7.99459 18.5672 6.28215Z" fill="white"/>
<path id="Vector_3" d="M4.53258 45.3407C-2.86085 36.5568 -1.00111 18.9494 8.59252 12.2622C3.92671 23.3382 4.47495 31.3353 14.6638 38.0066C6.14726 36.1522 4.44928 31.2232 2.80167 28.7002C2.80167 28.7002 0.873642 37.78 4.53258 45.3407Z" fill="white"/>
<path id="Vector_4" d="M56.4573 32.6557C59.0672 23.4297 56.8457 20.1443 55.8006 14.627C64.8338 29.3977 58.4565 43.9319 50.3831 48.8147C55.5792 36.4875 52.2114 22.0785 34.8301 16.6958C50.5361 16.1494 55.6805 30.6359 56.4573 32.6557Z" fill="white"/>
<path id="Vector_5" d="M30.0703 0.354958C41.4569 -1.42723 55.7056 9.20963 56.5479 20.8206C49.382 11.151 42.1944 7.50633 31.1949 12.7562C37.1746 6.45481 42.3044 7.54241 45.3303 7.43562C45.3303 7.43562 38.4808 1.12508 30.0703 0.354958Z" fill="white"/>
<path id="Vector_6" d="M15.3102 51.9746C22.323 58.5569 26.2836 58.1297 31.6885 59.7748C14.3222 60.8557 4.32807 48.4934 3.72656 39.124C12.3022 49.4222 26.7127 53.1555 39.5885 40.3704C32.7772 54.4374 17.4717 52.23 15.3102 51.9746Z" fill="white"/>
<path id="Vector_7" d="M56.0912 43.5644C52.4923 54.4408 36.4603 62.18 25.6738 57.6261C37.6067 55.7054 44.1516 51.0159 44.4674 38.8989C47.3843 47.0595 44.0693 51.0967 42.7834 53.8198C42.7834 53.8198 51.5629 50.646 56.0907 43.5644H56.0912Z" fill="white"/>
</g>
<g id="Group_2">
<path id="Vector_8" d="M104.996 11.457C119.415 11.7403 119.225 32.0336 105.21 32.3258C90.1136 32.2621 91.0526 11.5466 104.996 11.457ZM105.028 15.5616C98.0253 15.6085 98.411 28.3168 105.101 28.3415C111.905 28.4654 111.151 15.5466 105.028 15.5616ZM74.4943 14.445C74.4888 12.9206 72.8457 11.8599 72.8457 11.8599H80.396L80.4862 20.1004L86.4544 13.0674C87.2651 12.2748 88.0534 12.065 88.8598 12.059H93.5518L85.823 21.2886L94.0204 31.9115L87.3614 31.8472L80.5861 22.9344L80.3978 31.8712H74.6886L74.4949 14.445H74.4943ZM118.237 17.5941C117.104 14.8918 116.595 14.1389 115.733 13.279L114.313 11.9501C114.313 11.9501 119.367 11.9651 121.893 12.0283L124.41 18.6915C124.41 18.6915 127.042 25.2327 127.183 25.0841L131.364 14.9555C132.275 12.6194 132.553 12.1233 133.675 12.0962H138.152L130.293 31.8797H123.899L118.237 17.5941ZM148.701 11.457C163.12 11.7403 162.93 32.0336 148.915 32.3258C133.819 32.2621 134.758 11.5466 148.701 11.457ZM148.733 15.5616C141.73 15.6085 142.116 28.3168 148.806 28.3415C155.61 28.4654 154.856 15.5466 148.733 15.5616Z" fill="white"/>
<g id="Group_3">
<path id="Vector_9" d="M76.8299 40.8686L79.1056 44.0007H78.1209L76.2881 41.4756L75.2956 42.5829V44.0014H74.4941V38.4271H75.2956V41.4377L77.9907 38.4116H79.0596L76.8299 40.8686Z" fill="white"/>
<path id="Vector_10" d="M82.175 38.3579C83.7171 38.3579 84.9698 39.6472 84.9698 41.2097C84.9698 42.7723 83.7178 44.0615 82.175 44.0615C80.6322 44.0615 79.373 42.78 79.373 41.2097C79.373 39.6394 80.6329 38.3579 82.175 38.3579ZM84.1755 41.2097C84.1755 40.0722 83.2594 39.1546 82.175 39.1546C81.0906 39.1546 80.1667 40.0722 80.1667 41.2097C80.1667 42.3472 81.075 43.2725 82.175 43.2725C83.275 43.2725 84.1755 42.3549 84.1755 41.2097Z" fill="white"/>
<path id="Vector_11" d="M85.8301 38.4189H88.1821C89.1442 38.4189 89.923 39.1925 89.923 40.2162C89.9004 41.0803 89.3656 41.6951 88.6709 41.9375L90.1904 44.0003H89.2206L87.7697 42.0436H86.6089V44.0003H85.8301V38.4189ZM89.1512 40.2239C89.1512 39.6625 88.6929 39.2079 88.1206 39.2079H86.6089V41.263H88.1206C88.6936 41.263 89.1512 40.793 89.1512 40.2239Z" fill="white"/>
<path id="Vector_12" d="M94.8108 39.185H91.8249V40.7399H94.566V41.5211H91.8249V43.2277H94.8108V44.0013H91.0312V38.4199H94.8108V39.1857V39.185Z" fill="white"/>
<path id="Vector_13" d="M100.902 44.0003H100.055L99.4289 42.4911H96.825L96.199 44.0003H95.3516L97.6958 38.4189H98.5588L100.903 44.0003H100.902ZM99.0773 41.6572L98.1309 39.3899L97.1766 41.6572H99.078H99.0773Z" fill="white"/>
<path id="Vector_14" d="M106.668 44.0003H105.69L102.491 39.5635V44.0003H101.689V38.4189H102.644L105.874 42.848V38.4189H106.668V44.0003Z" fill="white"/>
<path id="Vector_15" d="M112.654 44.0003H111.791L109.424 38.4189H110.279L112.234 43.0223L114.127 38.4189H114.936L112.654 44.0003Z" fill="white"/>
<path id="Vector_16" d="M117.868 38.3579C119.41 38.3579 120.663 39.6472 120.663 41.2097C120.663 42.7723 119.411 44.0615 117.868 44.0615C116.326 44.0615 115.066 42.78 115.066 41.2097C115.066 39.6394 116.326 38.3579 117.868 38.3579ZM119.869 41.2097C119.869 40.0722 118.953 39.1546 117.868 39.1546C116.784 39.1546 115.86 40.0722 115.86 41.2097C115.86 42.3472 116.768 43.2725 117.868 43.2725C118.968 43.2725 119.869 42.3549 119.869 41.2097Z" fill="white"/>
<path id="Vector_17" d="M122.305 43.2267H125.092V44.0003H121.512V38.4189H122.306V43.2267H122.305Z" fill="white"/>
<path id="Vector_18" d="M126.809 43.2267H129.596V44.0003H126.016V38.4189H126.81V43.2267H126.809Z" fill="white"/>
<path id="Vector_19" d="M134.223 39.185H131.237V40.7399H133.978V41.5211H131.237V43.2277H134.223V44.0013H130.443V38.4199H134.223V39.1857V39.185Z" fill="white"/>
<path id="Vector_20" d="M137.874 41.8237V44.0003H137.095V41.8237L134.857 38.4189H135.797L137.485 40.9897L139.18 38.4189H140.111L137.874 41.8237Z" fill="white"/>
<path id="Vector_21" d="M140.904 38.4189H143.333C144.188 38.4189 144.875 39.0787 144.875 39.9358C144.875 40.4136 144.638 40.8007 144.287 41.081C144.714 41.3466 145.005 41.8623 145.005 42.4462C145.005 43.3103 144.31 44.001 143.455 44.001H140.905V38.4196L140.904 38.4189ZM141.706 40.7396H143.309C143.744 40.7241 144.08 40.4136 144.08 39.9815C144.08 39.5494 143.714 39.2002 143.271 39.2002H141.706V40.7396ZM141.706 43.1895H143.378C143.821 43.1895 144.179 42.8403 144.179 42.378C144.179 41.8925 143.821 41.5209 143.378 41.5209H141.706V43.1895Z" fill="white"/>
<path id="Vector_22" d="M151.119 44.0003H150.272L149.646 42.4911H147.042L146.416 44.0003H145.568L147.913 38.4189H148.776L151.12 44.0003H151.119ZM149.294 41.6572L148.348 39.3899L147.393 41.6572H149.295H149.294Z" fill="white"/>
<path id="Vector_23" d="M152.708 43.2267H155.495V44.0003H151.914V38.4189H152.708V43.2267H152.708Z" fill="white"/>
<path id="Vector_24" d="M157.214 43.2267H160.001V44.0003H156.42V38.4189H157.214V43.2267H157.214Z" fill="white"/>
<path id="Vector_25" d="M78.1875 48.2846H75.2788V49.9154H77.7829V50.6966H75.2788V53.1009H74.4844V47.5195H78.1875V48.2854V48.2846Z" fill="white"/>
<path id="Vector_26" d="M82.8147 48.2846H79.8288V49.8395H82.5699V50.6207H79.8288V52.3273H82.8147V53.1009H79.0352V47.5195H82.8147V48.2854V48.2846Z" fill="white"/>
<path id="Vector_27" d="M83.8164 47.519H85.5042C87.0463 47.519 88.3062 48.7703 88.3062 50.3097C88.3062 51.8491 87.0463 53.1004 85.5042 53.1004H83.8164V47.519ZM87.5047 50.3097C87.5047 49.2102 86.5964 48.3151 85.4964 48.3151H84.6186V52.3044H85.4964C86.5957 52.3044 87.5047 51.4093 87.5047 50.3097Z" fill="white"/>
<path id="Vector_28" d="M92.8401 48.2846H89.8542V49.8395H92.5953V50.6207H89.8542V52.3273H92.8401V53.1009H89.0605V47.5195H92.8401V48.2854V48.2846Z" fill="white"/>
<path id="Vector_29" d="M93.8398 47.519H96.1919C97.1539 47.519 97.9327 48.2926 97.9327 49.3163C97.9101 50.1804 97.3753 50.7952 96.6807 51.0376L98.2001 53.1004H97.2303L95.7795 51.1437H94.6187V53.1004H93.8398V47.519ZM97.161 49.324C97.161 48.7626 96.7026 48.308 96.1303 48.308H94.6187V50.3631H96.1303C96.7033 50.3631 97.161 49.8931 97.161 49.324Z" fill="white"/>
<path id="Vector_30" d="M104.469 53.1009H103.621L102.995 51.5917H100.391L99.7654 53.1009H98.918L101.262 47.5195H102.125L104.469 53.1009H104.469ZM102.644 50.7578L101.697 48.4905L100.743 50.7578H102.644H102.644Z" fill="white"/>
<path id="Vector_31" d="M108.562 48.2849H106.966V53.1004H106.164V48.2849H104.568V47.519H108.562V48.2849Z" fill="white"/>
<path id="Vector_32" d="M110.415 47.519V53.1004H109.621V47.519H110.415Z" fill="white"/>
<path id="Vector_33" d="M114.234 47.459C115.776 47.459 117.028 48.7482 117.028 50.3108C117.028 51.8733 115.776 53.1626 114.234 53.1626C112.691 53.1626 111.432 51.8811 111.432 50.3108C111.432 48.7405 112.691 47.459 114.234 47.459ZM116.234 50.3108C116.234 49.1733 115.318 48.2557 114.234 48.2557C113.149 48.2557 112.225 49.1733 112.225 50.3108C112.225 51.4483 113.134 52.3736 114.234 52.3736C115.334 52.3736 116.234 51.456 116.234 50.3108Z" fill="white"/>
<path id="Vector_34" d="M122.846 53.1009H121.868L118.669 48.664V53.1009H117.867V47.5195H118.821L122.051 51.9486V47.5195H122.846V53.1009Z" fill="white"/>
</g>
</g>
</g>
</svg>
